FFmpeg version SVN-r25716, Copyright (c) 2000-2010 the FFmpeg developers  built on Nov 10 2010 12:23:18 with gcc 4.1.2 20080704 (Red Hat 4.1.2-48)  configuration: --enable-libmp3lame --enable-shared --disable-mmx --arch=x86_64  libavutil     50.33. 0 / 50.33. 0  libavcore      0.12. 1 /  0.12. 1  libavcodec    52.94. 4 / 52.94. 4  libavformat   52.84. 0 / 52.84. 0  libavdevice   52. 2. 2 / 52. 2. 2  libavfilter    1.59. 0 /  1.59. 0  libswscale     0.12. 0 /  0.12. 0Input #0, avi, from '/RAID10/data/converted_video_files/47534.avi':  Duration: 00:00:02.83, start: 0.000000, bitrate: 7923 kb/s    Stream #0.0: Video: msvideo1, rgb555le, 512x512, 30 tbr, 30 tbn, 30 tbc[buffer @ 0x15edbd70] w:512 h:512 pixfmt:rgb555le[ffsink @ 0x15eda290] auto-inserting filter 'auto-inserted scaler 0' between the filter 'src' and the filter 'out'[scale @ 0x15eda580] w:512 h:512 fmt:rgb555le -> w:512 h:512 fmt:yuv420p flags:0x4Output #0, flv, to '/RAID10/data/converted_video_files/47534.flv':  Metadata:    encoder         : Lavf52.84.0    Stream #0.0: Video: flv, yuv420p, 512x512, q=2-31, 600 kb/s, 1k tbn, 24 tbcStream mapping:  Stream #0.0 -> #0.0Press [q] to stop encodingframe=   23 fps=  0 q=8.5 size=     181kB time=0.96 bitrate=1550.2kbits/s dup=0 drop=6    frame=   57 fps= 53 q=8.8 size=     293kB time=2.38 bitrate=1009.2kbits/s dup=0 drop=14    frame=   68 fps= 52 q=9.3 Lsize=     329kB time=2.83 bitrate= 950.2kbits/s dup=0 drop=17    video:327kB audio:0kB global headers:0kB muxing overhead 0.387249%